<?xml version="1.0" standalone="no"?>
<!DOCTYPE svg PUBLIC "-//W3C//DTD SVG 20010904//EN"
 "http://www.w3.org/TR/2001/REC-SVG-20010904/DTD/svg10.dtd">
<svg version="1.0" xmlns="http://www.w3.org/2000/svg"
 width="512.000000pt" height="512.000000pt" viewBox="0 0 512.000000 512.000000"
 preserveAspectRatio="xMidYMid meet">
<metadata>
Created by potrace 1.11, written by Peter Selinger 2001-2013
</metadata>
<g transform="translate(0.000000,512.000000) scale(0.100000,-0.100000)"
fill="#000000" stroke="none">
<path d="M0 4900 l0 -220 2560 0 2560 0 0 220 0 220 -2560 0 -2560 0 0 -220z"/>
<path d="M2447 4050 c-57 -15 -111 -45 -143 -82 -16 -18 -162 -302 -324 -630
-162 -329 -298 -594 -302 -590 -4 4 -138 275 -298 602 -190 388 -302 606 -322
628 -52 52 -125 74 -238 70 -117 -4 -178 -30 -225 -97 l-30 -43 -3 -754 -2
-754 155 0 155 0 2 645 3 644 300 -591 c165 -325 313 -610 328 -634 54 -83
189 -115 282 -67 82 43 99 72 412 696 l302 602 1 -647 0 -648 155 0 155 0 -2
754 -3 754 -30 44 c-43 61 -120 98 -216 103 -41 2 -91 0 -112 -5z"/>
<path d="M3475 4049 c-153 -23 -270 -94 -327 -201 -21 -40 -23 -57 -26 -251
-3 -208 -3 -209 23 -263 30 -62 87 -112 166 -148 114 -52 153 -58 484 -65 300
-6 312 -7 358 -30 79 -39 89 -63 85 -211 -5 -147 -10 -160 -88 -198 l-55 -27
-487 -3 -488 -3 0 -120 0 -119 513 0 c540 1 602 5 715 48 64 25 130 73 165
123 47 65 59 140 55 338 -3 157 -6 181 -26 226 -41 90 -101 138 -229 182 -77
26 -84 27 -398 33 -297 5 -323 7 -366 27 -25 11 -59 38 -75 58 -27 36 -29 43
-27 127 3 113 16 160 53 192 58 48 75 49 588 53 l482 4 0 120 0 119 -517 -1
c-285 -1 -545 -5 -578 -10z"/>
<path d="M1290 2150 l0 -110 180 0 180 0 0 -640 0 -640 150 0 150 0 0 750 0
750 -330 0 -330 0 0 -110z"/>
<path d="M2718 2250 c-120 -15 -195 -47 -269 -117 -78 -72 -84 -100 -84 -358
0 -208 1 -223 23 -270 29 -64 83 -120 146 -152 90 -46 166 -52 605 -53 l404 0
-5 -110 c-5 -129 -16 -151 -94 -190 l-49 -25 -482 -3 -483 -3 0 -105 0 -104
526 0 c448 0 536 2 597 16 132 30 203 78 247 168 l31 62 -3 504 -3 505 -27 51
c-31 58 -69 94 -139 130 -101 51 -147 56 -524 59 -192 2 -380 0 -417 -5z m717
-237 c90 -48 104 -89 105 -299 0 -125 -2 -145 -19 -165 l-19 -24 -274 -3
c-395 -5 -489 9 -541 82 -20 29 -22 42 -22 178 0 163 6 182 74 222 55 32 87
35 376 33 266 -2 282 -3 320 -24z"/>
<path d="M0 215 l0 -215 2560 0 2560 0 0 215 0 215 -2560 0 -2560 0 0 -215z"/>
</g>
</svg>
